# xmcd
# 
# Track frame offsets:
#     150
#     25275
#     52125
#     77850
#     106350
#     128550
#     153037
#     175125
#     191812
# 
# Disc length: 2854
# 
# Revision: 1
# Processed by: cddbd v1.5.2PL0 Copyright (c) Steve Scherf et al.
# Submitted via: BonkEnc v1.0.8
# 
DISCID=700b2409
DTITLE=Jacob Young - This Is You
DYEAR=1994
DGENRE=Contemporary Jazz
TTITLE0=Wake - Up Call
TTITLE1=This Is You
TTITLE2=Print
TTITLE3=Zingaro (Retrato Em Branco E Preto)
TTITLE4=The Juggler
TTITLE5=Flatpoint Avenue
TTITLE6=A Day In May
TTITLE7=Where Are You
TTITLE8=Why Do You Ask Me That?
EXTD=YEAR: 1994
EXTT0=
EXTT1=
EXTT2=
EXTT3=
EXTT4=
EXTT5=
EXTT6=
EXTT7=
EXTT8=
PLAYORDER=
